<svg width="100" height="100" viewBox="0 0 100 100" fill="none" xmlns="http://www.w3.org/2000/svg">
<path d="M53.125 11.4583V18.75H61.3541C62.8166 18.75 64.2458 19.1916 65.4541 20.0125L72.525 24.8208C72.7 24.9375 72.8944 24.9972 73.1083 25H90.2C91.0288 25 91.8236 25.3292 92.4097 25.9153C92.9957 26.5013 93.325 27.2962 93.325 28.125C93.325 28.9538 92.9957 29.7486 92.4097 30.3347C91.8236 30.9207 91.0288 31.25 90.2 31.25H83.625L97.65 63.25C97.9306 63.8898 97.9886 64.6053 97.8149 65.282C97.6412 65.9587 97.2457 66.5577 96.6916 66.9833C96.275 67.2917 95.8444 67.5778 95.4 67.8416C94.3452 68.4761 93.245 69.0318 92.1083 69.5041C88.3395 71.0802 84.2934 71.8863 80.2083 71.875C76.1244 71.8927 72.0787 71.0878 68.3125 69.5083C67.1757 69.0346 66.0755 68.4775 65.0208 67.8416C64.5776 67.5875 64.1504 67.3064 63.7416 67L63.7208 66.9833C63.1667 66.5577 62.7712 65.9587 62.5975 65.282C62.4238 64.6053 62.4819 63.8898 62.7625 63.25L76.7958 31.25H73.1041C71.6416 31.25 70.2125 30.8083 69.0041 29.9875L61.9333 25.1791C61.7611 25.0625 61.5579 25.0001 61.35 25H53.125V85.4167H71.8208C72.6496 85.4167 73.4445 85.7459 74.0305 86.3319C74.6166 86.918 74.9458 87.7129 74.9458 88.5417C74.9458 89.3705 74.6166 90.1653 74.0305 90.7514C73.4445 91.3374 72.6496 91.6667 71.8208 91.6667H28.1791C27.3503 91.6667 26.5555 91.3374 25.9694 90.7514C25.3834 90.1653 25.0541 89.3705 25.0541 88.5417C25.0541 87.7129 25.3834 86.918 25.9694 86.3319C26.5555 85.7459 27.3503 85.4167 28.1791 85.4167H46.875V25H38.6458C38.4378 25.0001 38.2347 25.0625 38.0625 25.1791L30.9958 29.9875C29.7875 30.8083 28.3583 31.25 26.8958 31.25H23.2041L37.2375 63.25C37.5091 63.8717 37.571 64.5648 37.4139 65.2248C37.2568 65.8848 36.8892 66.4757 36.3666 66.9083C36.0333 67.1792 35.7 67.4333 35.075 67.8375C34.0218 68.5209 32.9187 69.124 31.775 69.6417C28.0127 71.3542 23.9254 72.2354 19.7916 72.225C15.6579 72.2354 11.5706 71.3542 7.80831 69.6417C6.66457 69.124 5.56145 68.5209 4.50831 67.8375C4.0648 67.5511 3.63515 67.2438 3.22081 66.9166C2.70129 66.4799 2.33583 65.8879 2.17829 65.2277C2.02075 64.5675 2.07948 63.8742 2.34581 63.25L16.375 31.25H9.80415C8.97534 31.25 8.18049 30.9207 7.59444 30.3347C7.00839 29.7486 6.67915 28.9538 6.67915 28.125C6.67915 27.2962 7.00839 26.5013 7.59444 25.9153C8.18049 25.3292 8.97534 25 9.80415 25H26.8958C27.1069 25 27.3028 24.9403 27.4833 24.8208L34.5458 20.0125C35.7541 19.1875 37.1875 18.75 38.65 18.75H46.875V11.4583C46.875 10.6295 47.2042 9.83466 47.7903 9.2486C48.3763 8.66255 49.1712 8.33331 50 8.33331C50.8288 8.33331 51.6236 8.66255 52.2097 9.2486C52.7957 9.83466 53.125 10.6295 53.125 11.4583ZM9.13748 63.325C12.4159 65.0731 16.0763 65.9821 19.7916 65.9708C23.507 65.9821 27.1673 65.0731 30.4458 63.325L19.7916 39.0333L9.13748 63.325ZM69.5958 63.225C69.9375 63.3916 70.3194 63.5667 70.7416 63.75C72.95 64.6792 76.1791 65.625 80.2083 65.625C83.8815 65.6348 87.5093 64.8144 90.8208 63.225L80.2083 39.0291L69.5958 63.225Z" fill="#3366CC"/>
</svg>
